# xmcd
#
# Track frame offsets: 
#        150
#        18316
#        33985
#        47952
#        74127
#        94427
#        111785
#        127345
#        146767
#        168335
#        189802
#        203477
#        219360
#        236421
#        258320
#
# Disc length: 3724 seconds
#
# Revision: 0
# Processed by: cddbd v1.5.1PL2 Copyright (c) Steve Scherf et al.
# Submitted via: ExactAudioCopy v0.95b3
#
DISCID=dc0e8a0f
DTITLE=Gary Stewart - Live At Billy Bob´s Texas
DYEAR=2003
DGENRE=Country
TTITLE0=Little Junior
TTITLE1=Flat Natural Born Good-Timin' Man
TTITLE2=Whiskey Trip
TTITLE3=An Empty Glass
TTITLE4=She's Acting Single
TTITLE5=I See The Want-To In Your Eyes
TTITLE6=Out Of Hand
TTITLE7=Ten Years Of This
TTITLE8=Quits
TTITLE9=Drinkin' Thing
TTITLE10=In Some Room Above The Street
TTITLE11=Single Again
TTITLE12=Your Place Or Mine
TTITLE13=Are We Dreamin' The Same Dream
TTITLE14=Brand New Whiskey
EXTD=
EXTT0=
EXTT1=
EXTT2=
EXTT3=
EXTT4=
EXTT5=
EXTT6=
EXTT7=
EXTT8=
EXTT9=
EXTT10=
EXTT11=
EXTT12=
EXTT13=
EXTT14=
PLAYORDER=
